solid Beaker
facet normal 0.0 0.0 -1.0
outer loop
vertex -0.0260799973098048 0.00698811421776807 0.0
vertex -0.0260799973098048 -0.00698811421776805 0.0
vertex -0.027 3.30654635769785e-18 0.0
endloop
endfacet
facet normal 0.0 0.0 -1.0
outer loop
vertex -0.0260799973098048 -0.00698811421776805 0.0
vertex -0.0260799973098048 0.00698811421776807 0.0
vertex -0.0233826859021798 -0.0135 0.0
endloop
endfacet
facet normal 0.0 0.0 -1.0
outer loop
vertex -0.0233826859021798 -0.0135 0.0
vertex -0.0260799973098048 0.00698811421776807 0.0
vertex -0.0233826859021798 0.0135 0.0
endloop
endfacet
facet normal 0.0 0.0 -1.0
outer loop
vertex -0.0233826859021798 -0.0135 0.0
vertex -0.0233826859021798 0.0135 0.0
vertex -0.0190918830920368 -0.0190918830920368 0.0
endloop
endfacet
facet normal 0.0 0.0 -1.0
outer loop
vertex -0.0190918830920368 -0.0190918830920368 0.0
vertex -0.0233826859021798 0.0135 0.0
vertex -0.0190918830920368 0.0190918830920368 0.0
endloop
endfacet
facet normal 0.0 0.0 -1.0
outer loop
vertex -0.0190918830920368 -0.0190918830920368 0.0
vertex -0.0190918830920368 0.0190918830920368 0.0
vertex -0.0135 -0.0233826859021798 0.0
endloop
endfacet
facet normal 0.0 0.0 -1.0
outer loop
vertex -0.0135 -0.0233826859021798 0.0
vertex -0.0190918830920368 0.0190918830920368 0.0
vertex -0.0135 0.0233826859021798 0.0
endloop
endfacet
facet normal 0.0 0.0 -1.0
outer loop
vertex -0.0135 -0.0233826859021798 0.0
vertex -0.0135 0.0233826859021798 0.0
vertex -0.00698811421776808 -0.0260799973098048 0.0
endloop
endfacet
facet normal 0.0 0.0 -1.0
outer loop
vertex -0.00698811421776808 -0.0260799973098048 0.0
vertex -0.0135 0.0233826859021798 0.0
vertex -0.00698811421776806 0.0260799973098048 0.0
endloop
endfacet
facet normal 0.0 0.0 -1.0
outer loop
vertex -0.00698811421776808 -0.0260799973098048 0.0
vertex -0.00698811421776806 0.0260799973098048 0.0
vertex -4.95981953654678e-18 -0.027 0.0
endloop
endfacet
facet normal 0.0 0.0 -1.0
outer loop
vertex -4.95981953654678e-18 -0.027 0.0
vertex -0.00698811421776806 0.0260799973098048 0.0
vertex 1.65327317884893e-18 0.027 0.0
endloop
endfacet
facet normal 0.0 0.0 -1.0
outer loop
vertex -4.95981953654678e-18 -0.027 0.0
vertex 1.65327317884893e-18 0.027 0.0
vertex 0.00698811421776805 -0.0260799973098048 0.0
endloop
endfacet
facet normal 0.0 0.0 -1.0
outer loop
vertex 0.00698811421776805 -0.0260799973098048 0.0
vertex 1.65327317884893e-18 0.027 0.0
vertex 0.00698811421776807 0.0260799973098048 0.0
endloop
endfacet
facet normal 0.0 0.0 -1.0
outer loop
vertex 0.00698811421776805 -0.0260799973098048 0.0
vertex 0.00698811421776807 0.0260799973098048 0.0
vertex 0.0135 -0.0233826859021799 0.0
endloop
endfacet
facet normal 0.0 0.0 -1.0
outer loop
vertex 0.0135 -0.0233826859021799 0.0
vertex 0.00698811421776807 0.0260799973098048 0.0
vertex 0.0135 0.0233826859021798 0.0
endloop
endfacet
facet normal 0.0 0.0 -1.0
outer loop
vertex 0.0135 -0.0233826859021799 0.0
vertex 0.0135 0.0233826859021798 0.0
vertex 0.0190918830920368 -0.0190918830920368 0.0
endloop
endfacet
facet normal 0.0 0.0 -1.0
outer loop
vertex 0.0190918830920368 -0.0190918830920368 0.0
vertex 0.0135 0.0233826859021798 0.0
vertex 0.0190918830920368 0.0190918830920368 0.0
endloop
endfacet
facet normal 0.0 0.0 -1.0
outer loop
vertex 0.0190918830920368 -0.0190918830920368 0.0
vertex 0.0190918830920368 0.0190918830920368 0.0
vertex 0.0233826859021798 -0.0135 0.0
endloop
endfacet
facet normal 0.0 0.0 -1.0
outer loop
vertex 0.0233826859021798 -0.0135 0.0
vertex 0.0190918830920368 0.0190918830920368 0.0
vertex 0.0233826859021798 0.0135 0.0
endloop
endfacet
facet normal 0.0 0.0 -1.0
outer loop
vertex 0.0233826859021798 -0.0135 0.0
vertex 0.0233826859021798 0.0135 0.0
vertex 0.0260799973098048 -0.00698811421776808 0.0
endloop
endfacet
facet normal 0.0 0.0 -1.0
outer loop
vertex 0.0260799973098048 -0.00698811421776808 0.0
vertex 0.0233826859021798 0.0135 0.0
vertex 0.0260799973098048 0.00698811421776806 0.0
endloop
endfacet
facet normal 0.0 0.0 -1.0
outer loop
vertex 0.0260799973098048 -0.00698811421776808 0.0
vertex 0.0260799973098048 0.00698811421776806 0.0
vertex 0.027 0.0 0.0
endloop
endfacet
facet normal -0.608761429008721 0.793353340291235 0.0
outer loop
vertex -0.0190918830920368 0.0190918830920368 0.0529
vertex -0.0135 0.0233826859021798 0.0
vertex -0.0190918830920368 0.0190918830920368 0.0
endloop
endfacet
facet normal -0.608761429008721 0.793353340291235 0.0
outer loop
vertex -0.0135 0.0233826859021798 0.0
vertex -0.0190918830920368 0.0190918830920368 0.0529
vertex -0.0135 0.0233826859021798 0.0529
endloop
endfacet
facet normal -0.382683432365089 0.923879532511287 0.0
outer loop
vertex -0.0135 0.0233826859021798 0.0529
vertex -0.00698811421776806 0.0260799973098048 0.0
vertex -0.0135 0.0233826859021798 0.0
endloop
endfacet
facet normal -0.382683432365089 0.923879532511287 0.0
outer loop
vertex -0.00698811421776806 0.0260799973098048 0.0
vertex -0.0135 0.0233826859021798 0.0529
vertex -0.00698811421776806 0.0260799973098048 0.0529
endloop
endfacet
facet normal -2.35432738865573e-49 -6.73700216322821e-66 1.0
outer loop
vertex -0.0241481456572267 -0.00647047612756303 0.002
vertex -0.0241481456572267 0.00647047612756301 0.002
vertex -0.025 -3.06161699786838e-18 0.002
endloop
endfacet
facet normal -2.35432738865573e-49 -6.73700216322821e-66 1.0
outer loop
vertex -0.0241481456572267 0.00647047612756301 0.002
vertex -0.0241481456572267 -0.00647047612756303 0.002
vertex -0.021650635094611 0.0125 0.002
endloop
endfacet
facet normal -2.35432738865573e-49 -6.73700216322821e-66 1.0
outer loop
vertex -0.021650635094611 0.0125 0.002
vertex -0.0241481456572267 -0.00647047612756303 0.002
vertex -0.021650635094611 -0.0125 0.002
endloop
endfacet
facet normal -2.35432738865573e-49 -6.73700216322821e-66 1.0
outer loop
vertex -0.021650635094611 0.0125 0.002
vertex -0.021650635094611 -0.0125 0.002
vertex -0.0176776695296637 0.0176776695296637 0.002
endloop
endfacet
facet normal -2.35432738865573e-49 -6.73700216322821e-66 1.0
outer loop
vertex -0.0176776695296637 0.0176776695296637 0.002
vertex -0.021650635094611 -0.0125 0.002
vertex -0.0176776695296637 -0.0176776695296637 0.002
endloop
endfacet
facet normal -2.35432738865573e-49 -6.73700216322821e-66 1.0
outer loop
vertex -0.0176776695296637 0.0176776695296637 0.002
vertex -0.0176776695296637 -0.0176776695296637 0.002
vertex -0.0125 0.021650635094611 0.002
endloop
endfacet
facet normal -2.35432738865573e-49 -6.73700216322821e-66 1.0
outer loop
vertex -0.0125 0.021650635094611 0.002
vertex -0.0176776695296637 -0.0176776695296637 0.002
vertex -0.0125 -0.021650635094611 0.002
endloop
endfacet
facet normal -2.35432738865573e-49 -6.73700216322821e-66 1.0
outer loop
vertex -0.0125 0.021650635094611 0.002
vertex -0.0125 -0.021650635094611 0.002
vertex -0.00647047612756304 0.0241481456572267 0.002
endloop
endfacet
facet normal -2.35432738865573e-49 -6.73700216322821e-66 1.0
outer loop
vertex -0.00647047612756304 0.0241481456572267 0.002
vertex -0.0125 -0.021650635094611 0.002
vertex -0.00647047612756302 -0.0241481456572267 0.002
endloop
endfacet
facet normal -2.35432738865573e-49 -6.73700216322821e-66 1.0
outer loop
vertex -0.00647047612756304 0.0241481456572267 0.002
vertex -0.00647047612756302 -0.0241481456572267 0.002
vertex -4.59242549680257e-18 0.025 0.002
endloop
endfacet
facet normal -2.35432738865573e-49 -6.73700216322821e-66 1.0
outer loop
vertex -4.59242549680257e-18 0.025 0.002
vertex -0.00647047612756302 -0.0241481456572267 0.002
vertex 1.53080849893419e-18 -0.025 0.002
endloop
endfacet
facet normal -2.35432738865573e-49 -6.73700216322821e-66 1.0
outer loop
vertex -4.59242549680257e-18 0.025 0.002
vertex 1.53080849893419e-18 -0.025 0.002
vertex 0.00647047612756301 0.0241481456572267 0.002
endloop
endfacet
facet normal -2.35432738865573e-49 -6.73700216322821e-66 1.0
outer loop
vertex 0.00647047612756301 0.0241481456572267 0.002
vertex 1.53080849893419e-18 -0.025 0.002
vertex 0.00647047612756302 -0.0241481456572267 0.002
endloop
endfacet
facet normal -2.35432738865573e-49 -6.73700216322821e-66 1.0
outer loop
vertex 0.00647047612756301 0.0241481456572267 0.002
vertex 0.00647047612756302 -0.0241481456572267 0.002
vertex 0.0125 0.021650635094611 0.002
endloop
endfacet
facet normal -2.35432738865573e-49 -6.73700216322821e-66 1.0
outer loop
vertex 0.0125 0.021650635094611 0.002
vertex 0.00647047612756302 -0.0241481456572267 0.002
vertex 0.0125 -0.021650635094611 0.002
endloop
endfacet
facet normal -2.35432738865573e-49 -6.73700216322821e-66 1.0
outer loop
vertex 0.0125 0.021650635094611 0.002
vertex 0.0125 -0.021650635094611 0.002
vertex 0.0176776695296637 0.0176776695296637 0.002
endloop
endfacet
facet normal -2.35432738865573e-49 -6.73700216322821e-66 1.0
outer loop
vertex 0.0176776695296637 0.0176776695296637 0.002
vertex 0.0125 -0.021650635094611 0.002
vertex 0.0176776695296637 -0.0176776695296637 0.002
endloop
endfacet
facet normal -2.35432738865573e-49 -6.73700216322821e-66 1.0
outer loop
vertex 0.0176776695296637 0.0176776695296637 0.002
vertex 0.0176776695296637 -0.0176776695296637 0.002
vertex 0.021650635094611 0.0125 0.002
endloop
endfacet
facet normal -2.35432738865573e-49 -6.73700216322821e-66 1.0
outer loop
vertex 0.021650635094611 0.0125 0.002
vertex 0.0176776695296637 -0.0176776695296637 0.002
vertex 0.021650635094611 -0.0125 0.002
endloop
endfacet
facet normal -2.35432738865573e-49 -6.73700216322821e-66 1.0
outer loop
vertex 0.021650635094611 0.0125 0.002
vertex 0.021650635094611 -0.0125 0.002
vertex 0.0241481456572267 0.00647047612756304 0.002
endloop
endfacet
facet normal -2.35432738865573e-49 -6.73700216322821e-66 1.0
outer loop
vertex 0.0241481456572267 0.00647047612756304 0.002
vertex 0.021650635094611 -0.0125 0.002
vertex 0.0241481456572267 -0.00647047612756302 0.002
endloop
endfacet
facet normal -2.35432738865573e-49 -6.73700216322821e-66 1.0
outer loop
vertex 0.0241481456572267 0.00647047612756304 0.002
vertex 0.0241481456572267 -0.00647047612756302 0.002
vertex 0.025 0.0 0.002
endloop
endfacet
facet normal 0.38268343236509 0.923879532511287 -0.0
outer loop
vertex -0.0125 -0.021650635094611 0.0529
vertex -0.00647047612756302 -0.0241481456572267 0.002
vertex -0.0125 -0.021650635094611 0.002
endloop
endfacet
facet normal 0.38268343236509 0.923879532511287 -0.0
outer loop
vertex -0.00647047612756302 -0.0241481456572267 0.002
vertex -0.0125 -0.021650635094611 0.0529
vertex -0.00647047612756302 -0.0241481456572267 0.0529
endloop
endfacet
facet normal 0.608761429008721 0.793353340291235 -0.0
outer loop
vertex -0.0176776695296637 -0.0176776695296637 0.0529
vertex -0.0125 -0.021650635094611 0.002
vertex -0.0176776695296637 -0.0176776695296637 0.002
endloop
endfacet
facet normal 0.608761429008721 0.793353340291235 -0.0
outer loop
vertex -0.0125 -0.021650635094611 0.002
vertex -0.0176776695296637 -0.0176776695296637 0.0529
vertex -0.0125 -0.021650635094611 0.0529
endloop
endfacet
facet normal 0.793353340291235 0.608761429008721 -0.0
outer loop
vertex -0.021650635094611 -0.0125 0.002
vertex -0.0176776695296637 -0.0176776695296637 0.0529
vertex -0.0176776695296637 -0.0176776695296637 0.002
endloop
endfacet
facet normal 0.793353340291235 0.608761429008721 -0.0
outer loop
vertex -0.0176776695296637 -0.0176776695296637 0.0529
vertex -0.021650635094611 -0.0125 0.002
vertex -0.021650635094611 -0.0125 0.0529
endloop
endfacet
facet normal 0.923879532511287 0.38268343236509 -0.0
outer loop
vertex -0.0241481456572267 -0.00647047612756303 0.002
vertex -0.021650635094611 -0.0125 0.0529
vertex -0.021650635094611 -0.0125 0.002
endloop
endfacet
facet normal 0.923879532511287 0.38268343236509 -0.0
outer loop
vertex -0.021650635094611 -0.0125 0.0529
vertex -0.0241481456572267 -0.00647047612756303 0.002
vertex -0.0241481456572267 -0.00647047612756303 0.0529
endloop
endfacet
facet normal 0.99144486137381 0.130526192220052 -0.0
outer loop
vertex -0.025 -3.06161699786838e-18 0.002
vertex -0.0241481456572267 -0.00647047612756303 0.0529
vertex -0.0241481456572267 -0.00647047612756303 0.002
endloop
endfacet
facet normal 0.99144486137381 0.130526192220052 -0.0
outer loop
vertex -0.0241481456572267 -0.00647047612756303 0.0529
vertex -0.025 -3.06161699786838e-18 0.002
vertex -0.025 -3.06161699786838e-18 0.0529
endloop
endfacet
facet normal 0.991444861373811 -0.130526192220051 0.0
outer loop
vertex -0.0241481456572267 0.00647047612756301 0.002
vertex -0.025 -3.06161699786838e-18 0.0529
vertex -0.025 -3.06161699786838e-18 0.002
endloop
endfacet
facet normal 0.991444861373811 -0.130526192220051 0.0
outer loop
vertex -0.025 -3.06161699786838e-18 0.0529
vertex -0.0241481456572267 0.00647047612756301 0.002
vertex -0.0241481456572267 0.00647047612756301 0.0529
endloop
endfacet
facet normal 0.923879532511287 -0.382683432365089 0.0
outer loop
vertex -0.021650635094611 0.0125 0.002
vertex -0.0241481456572267 0.00647047612756301 0.0529
vertex -0.0241481456572267 0.00647047612756301 0.002
endloop
endfacet
facet normal 0.923879532511287 -0.382683432365089 0.0
outer loop
vertex -0.0241481456572267 0.00647047612756301 0.0529
vertex -0.021650635094611 0.0125 0.002
vertex -0.021650635094611 0.0125 0.0529
endloop
endfacet
facet normal 0.793353340291235 -0.60876142900872 0.0
outer loop
vertex -0.0176776695296637 0.0176776695296637 0.002
vertex -0.021650635094611 0.0125 0.0529
vertex -0.021650635094611 0.0125 0.002
endloop
endfacet
facet normal 0.793353340291235 -0.60876142900872 0.0
outer loop
vertex -0.021650635094611 0.0125 0.0529
vertex -0.0176776695296637 0.0176776695296637 0.002
vertex -0.0176776695296637 0.0176776695296637 0.0529
endloop
endfacet
facet normal 0.608761429008721 -0.793353340291235 0.0
outer loop
vertex -0.0125 0.021650635094611 0.0529
vertex -0.0176776695296637 0.0176776695296637 0.002
vertex -0.0125 0.021650635094611 0.002
endloop
endfacet
facet normal 0.608761429008721 -0.793353340291235 0.0
outer loop
vertex -0.0176776695296637 0.0176776695296637 0.002
vertex -0.0125 0.021650635094611 0.0529
vertex -0.0176776695296637 0.0176776695296637 0.0529
endloop
endfacet
facet normal -0.60876142900872 -0.793353340291236 0.0
outer loop
vertex 0.0176776695296637 0.0176776695296637 0.0529
vertex 0.0125 0.021650635094611 0.002
vertex 0.0176776695296637 0.0176776695296637 0.002
endloop
endfacet
facet normal -0.60876142900872 -0.793353340291236 0.0
outer loop
vertex 0.0125 0.021650635094611 0.002
vertex 0.0176776695296637 0.0176776695296637 0.0529
vertex 0.0125 0.021650635094611 0.0529
endloop
endfacet
facet normal -0.793353340291235 -0.608761429008721 0.0
outer loop
vertex 0.0176776695296637 0.0176776695296637 0.0529
vertex 0.021650635094611 0.0125 0.002
vertex 0.021650635094611 0.0125 0.0529
endloop
endfacet
facet normal -0.793353340291235 -0.608761429008721 0.0
outer loop
vertex 0.021650635094611 0.0125 0.002
vertex 0.0176776695296637 0.0176776695296637 0.0529
vertex 0.0176776695296637 0.0176776695296637 0.002
endloop
endfacet
facet normal -0.923879532511287 -0.382683432365091 0.0
outer loop
vertex 0.021650635094611 0.0125 0.0529
vertex 0.0241481456572267 0.00647047612756304 0.002
vertex 0.0241481456572267 0.00647047612756304 0.0529
endloop
endfacet
facet normal -0.923879532511287 -0.382683432365091 0.0
outer loop
vertex 0.0241481456572267 0.00647047612756304 0.002
vertex 0.021650635094611 0.0125 0.0529
vertex 0.021650635094611 0.0125 0.002
endloop
endfacet
facet normal -0.99144486137381 -0.130526192220052 0.0
outer loop
vertex 0.0241481456572267 0.00647047612756304 0.0529
vertex 0.025 0.0 0.002
vertex 0.025 0.0 0.0529
endloop
endfacet
facet normal -0.99144486137381 -0.130526192220052 0.0
outer loop
vertex 0.025 0.0 0.002
vertex 0.0241481456572267 0.00647047612756304 0.0529
vertex 0.0241481456572267 0.00647047612756304 0.002
endloop
endfacet
facet normal -0.991444861373811 0.130526192220051 0.0
outer loop
vertex 0.025 0.0 0.0529
vertex 0.0241481456572267 -0.00647047612756302 0.002
vertex 0.0241481456572267 -0.00647047612756302 0.0529
endloop
endfacet
facet normal -0.991444861373811 0.130526192220051 0.0
outer loop
vertex 0.0241481456572267 -0.00647047612756302 0.002
vertex 0.025 0.0 0.0529
vertex 0.025 0.0 0.002
endloop
endfacet
facet normal -0.923879532511287 0.38268343236509 0.0
outer loop
vertex 0.0241481456572267 -0.00647047612756302 0.0529
vertex 0.021650635094611 -0.0125 0.002
vertex 0.021650635094611 -0.0125 0.0529
endloop
endfacet
facet normal -0.923879532511287 0.38268343236509 0.0
outer loop
vertex 0.021650635094611 -0.0125 0.002
vertex 0.0241481456572267 -0.00647047612756302 0.0529
vertex 0.0241481456572267 -0.00647047612756302 0.002
endloop
endfacet
facet normal -0.793353340291235 0.608761429008721 0.0
outer loop
vertex 0.021650635094611 -0.0125 0.0529
vertex 0.0176776695296637 -0.0176776695296637 0.002
vertex 0.0176776695296637 -0.0176776695296637 0.0529
endloop
endfacet
facet normal -0.793353340291235 0.608761429008721 0.0
outer loop
vertex 0.0176776695296637 -0.0176776695296637 0.002
vertex 0.021650635094611 -0.0125 0.0529
vertex 0.021650635094611 -0.0125 0.002
endloop
endfacet
facet normal -0.608761429008721 0.793353340291235 0.0
outer loop
vertex 0.0125 -0.021650635094611 0.0529
vertex 0.0176776695296637 -0.0176776695296637 0.002
vertex 0.0125 -0.021650635094611 0.002
endloop
endfacet
facet normal -0.608761429008721 0.793353340291235 0.0
outer loop
vertex 0.0176776695296637 -0.0176776695296637 0.002
vertex 0.0125 -0.021650635094611 0.0529
vertex 0.0176776695296637 -0.0176776695296637 0.0529
endloop
endfacet
facet normal -0.38268343236509 0.923879532511287 0.0
outer loop
vertex 0.00647047612756302 -0.0241481456572267 0.0529
vertex 0.0125 -0.021650635094611 0.002
vertex 0.00647047612756302 -0.0241481456572267 0.002
endloop
endfacet
facet normal -0.38268343236509 0.923879532511287 0.0
outer loop
vertex 0.0125 -0.021650635094611 0.002
vertex 0.00647047612756302 -0.0241481456572267 0.0529
vertex 0.0125 -0.021650635094611 0.0529
endloop
endfacet
facet normal -0.130526192220052 0.99144486137381 0.0
outer loop
vertex 1.53080849893419e-18 -0.025 0.0529
vertex 0.00647047612756302 -0.0241481456572267 0.002
vertex 1.53080849893419e-18 -0.025 0.002
endloop
endfacet
facet normal -0.130526192220052 0.99144486137381 0.0
outer loop
vertex 0.00647047612756302 -0.0241481456572267 0.002
vertex 1.53080849893419e-18 -0.025 0.0529
vertex 0.00647047612756302 -0.0241481456572267 0.0529
endloop
endfacet
facet normal 0.130526192220051 0.991444861373811 -0.0
outer loop
vertex -0.00647047612756302 -0.0241481456572267 0.0529
vertex 1.53080849893419e-18 -0.025 0.002
vertex -0.00647047612756302 -0.0241481456572267 0.002
endloop
endfacet
facet normal 0.130526192220051 0.991444861373811 -0.0
outer loop
vertex 1.53080849893419e-18 -0.025 0.002
vertex -0.00647047612756302 -0.0241481456572267 0.0529
vertex 1.53080849893419e-18 -0.025 0.0529
endloop
endfacet
facet normal -0.793353340291235 0.608761429008721 0.0
outer loop
vertex -0.0190918830920368 0.0190918830920368 0.0529
vertex -0.0233826859021798 0.0135 0.0
vertex -0.0233826859021798 0.0135 0.0529
endloop
endfacet
facet normal -0.793353340291235 0.608761429008721 0.0
outer loop
vertex -0.0233826859021798 0.0135 0.0
vertex -0.0190918830920368 0.0190918830920368 0.0529
vertex -0.0190918830920368 0.0190918830920368 0.0
endloop
endfacet
facet normal 0.608761429008721 0.793353340291235 0.0
outer loop
vertex 0.0135 0.0233826859021798 0.0529
vertex 0.0190918830920368 0.0190918830920368 0.0
vertex 0.0135 0.0233826859021798 0.0
endloop
endfacet
facet normal 0.608761429008721 0.793353340291235 0.0
outer loop
vertex 0.0190918830920368 0.0190918830920368 0.0
vertex 0.0135 0.0233826859021798 0.0529
vertex 0.0190918830920368 0.0190918830920368 0.0529
endloop
endfacet
facet normal 0.793353340291235 0.608761429008721 0.0
outer loop
vertex 0.0190918830920368 0.0190918830920368 0.0
vertex 0.0233826859021798 0.0135 0.0529
vertex 0.0233826859021798 0.0135 0.0
endloop
endfacet
facet normal 0.793353340291235 0.608761429008721 0.0
outer loop
vertex 0.0233826859021798 0.0135 0.0529
vertex 0.0190918830920368 0.0190918830920368 0.0
vertex 0.0190918830920368 0.0190918830920368 0.0529
endloop
endfacet
facet normal 0.923879532511287 0.38268343236509 0.0
outer loop
vertex 0.0233826859021798 0.0135 0.0
vertex 0.0260799973098048 0.00698811421776806 0.0529
vertex 0.0260799973098048 0.00698811421776806 0.0
endloop
endfacet
facet normal 0.923879532511287 0.38268343236509 0.0
outer loop
vertex 0.0260799973098048 0.00698811421776806 0.0529
vertex 0.0233826859021798 0.0135 0.0
vertex 0.0233826859021798 0.0135 0.0529
endloop
endfacet
facet normal 0.99144486137381 0.130526192220052 0.0
outer loop
vertex 0.0260799973098048 0.00698811421776806 0.0
vertex 0.027 0.0 0.0529
vertex 0.027 0.0 0.0
endloop
endfacet
facet normal 0.99144486137381 0.130526192220052 0.0
outer loop
vertex 0.027 0.0 0.0529
vertex 0.0260799973098048 0.00698811421776806 0.0
vertex 0.0260799973098048 0.00698811421776806 0.0529
endloop
endfacet
facet normal 0.99144486137381 -0.130526192220052 0.0
outer loop
vertex 0.027 0.0 0.0
vertex 0.0260799973098048 -0.00698811421776808 0.0529
vertex 0.0260799973098048 -0.00698811421776808 0.0
endloop
endfacet
facet normal 0.99144486137381 -0.130526192220052 0.0
outer loop
vertex 0.0260799973098048 -0.00698811421776808 0.0529
vertex 0.027 0.0 0.0
vertex 0.027 0.0 0.0529
endloop
endfacet
facet normal 0.923879532511287 -0.38268343236509 0.0
outer loop
vertex 0.0260799973098048 -0.00698811421776808 0.0
vertex 0.0233826859021798 -0.0135 0.0529
vertex 0.0233826859021798 -0.0135 0.0
endloop
endfacet
facet normal 0.923879532511287 -0.38268343236509 0.0
outer loop
vertex 0.0233826859021798 -0.0135 0.0529
vertex 0.0260799973098048 -0.00698811421776808 0.0
vertex 0.0260799973098048 -0.00698811421776808 0.0529
endloop
endfacet
facet normal 0.793353340291235 -0.608761429008721 0.0
outer loop
vertex 0.0233826859021798 -0.0135 0.0
vertex 0.0190918830920368 -0.0190918830920368 0.0529
vertex 0.0190918830920368 -0.0190918830920368 0.0
endloop
endfacet
facet normal 0.793353340291235 -0.608761429008721 0.0
outer loop
vertex 0.0190918830920368 -0.0190918830920368 0.0529
vertex 0.0233826859021798 -0.0135 0.0
vertex 0.0233826859021798 -0.0135 0.0529
endloop
endfacet
facet normal 0.60876142900872 -0.793353340291236 0.0
outer loop
vertex 0.0190918830920368 -0.0190918830920368 0.0529
vertex 0.0135 -0.0233826859021799 0.0
vertex 0.0190918830920368 -0.0190918830920368 0.0
endloop
endfacet
facet normal 0.60876142900872 -0.793353340291236 0.0
outer loop
vertex 0.0135 -0.0233826859021799 0.0
vertex 0.0190918830920368 -0.0190918830920368 0.0529
vertex 0.0135 -0.0233826859021799 0.0529
endloop
endfacet
facet normal 0.38268343236509 -0.923879532511287 0.0
outer loop
vertex 0.0135 -0.0233826859021799 0.0529
vertex 0.00698811421776805 -0.0260799973098048 0.0
vertex 0.0135 -0.0233826859021799 0.0
endloop
endfacet
facet normal 0.38268343236509 -0.923879532511287 0.0
outer loop
vertex 0.00698811421776805 -0.0260799973098048 0.0
vertex 0.0135 -0.0233826859021799 0.0529
vertex 0.00698811421776805 -0.0260799973098048 0.0529
endloop
endfacet
facet normal 0.130526192220051 -0.99144486137381 0.0
outer loop
vertex 0.00698811421776805 -0.0260799973098048 0.0529
vertex -4.95981953654678e-18 -0.027 0.0
vertex 0.00698811421776805 -0.0260799973098048 0.0
endloop
endfacet
facet normal 0.130526192220051 -0.99144486137381 0.0
outer loop
vertex -4.95981953654678e-18 -0.027 0.0
vertex 0.00698811421776805 -0.0260799973098048 0.0529
vertex -4.95981953654678e-18 -0.027 0.0529
endloop
endfacet
facet normal -0.130526192220052 -0.99144486137381 -0.0
outer loop
vertex -4.95981953654678e-18 -0.027 0.0529
vertex -0.00698811421776808 -0.0260799973098048 0.0
vertex -4.95981953654678e-18 -0.027 0.0
endloop
endfacet
facet normal -0.130526192220052 -0.99144486137381 -0.0
outer loop
vertex -0.00698811421776808 -0.0260799973098048 0.0
vertex -4.95981953654678e-18 -0.027 0.0529
vertex -0.00698811421776808 -0.0260799973098048 0.0529
endloop
endfacet
facet normal -0.38268343236509 -0.923879532511287 -0.0
outer loop
vertex -0.00698811421776808 -0.0260799973098048 0.0529
vertex -0.0135 -0.0233826859021798 0.0
vertex -0.00698811421776808 -0.0260799973098048 0.0
endloop
endfacet
facet normal -0.38268343236509 -0.923879532511287 -0.0
outer loop
vertex -0.0135 -0.0233826859021798 0.0
vertex -0.00698811421776808 -0.0260799973098048 0.0529
vertex -0.0135 -0.0233826859021798 0.0529
endloop
endfacet
facet normal -0.608761429008721 -0.793353340291235 -0.0
outer loop
vertex -0.0135 -0.0233826859021798 0.0529
vertex -0.0190918830920368 -0.0190918830920368 0.0
vertex -0.0135 -0.0233826859021798 0.0
endloop
endfacet
facet normal -0.608761429008721 -0.793353340291235 -0.0
outer loop
vertex -0.0190918830920368 -0.0190918830920368 0.0
vertex -0.0135 -0.0233826859021798 0.0529
vertex -0.0190918830920368 -0.0190918830920368 0.0529
endloop
endfacet
facet normal -0.793353340291235 -0.608761429008721 -0.0
outer loop
vertex -0.0233826859021798 -0.0135 0.0529
vertex -0.0190918830920368 -0.0190918830920368 0.0
vertex -0.0190918830920368 -0.0190918830920368 0.0529
endloop
endfacet
facet normal -0.793353340291235 -0.608761429008721 -0.0
outer loop
vertex -0.0190918830920368 -0.0190918830920368 0.0
vertex -0.0233826859021798 -0.0135 0.0529
vertex -0.0233826859021798 -0.0135 0.0
endloop
endfacet
facet normal -0.923879532511287 -0.38268343236509 -0.0
outer loop
vertex -0.0260799973098048 -0.00698811421776805 0.0529
vertex -0.0233826859021798 -0.0135 0.0
vertex -0.0233826859021798 -0.0135 0.0529
endloop
endfacet
facet normal -0.923879532511287 -0.38268343236509 -0.0
outer loop
vertex -0.0233826859021798 -0.0135 0.0
vertex -0.0260799973098048 -0.00698811421776805 0.0529
vertex -0.0260799973098048 -0.00698811421776805 0.0
endloop
endfacet
facet normal -0.99144486137381 -0.130526192220051 -0.0
outer loop
vertex -0.027 3.30654635769785e-18 0.0529
vertex -0.0260799973098048 -0.00698811421776805 0.0
vertex -0.0260799973098048 -0.00698811421776805 0.0529
endloop
endfacet
facet normal -0.99144486137381 -0.130526192220051 -0.0
outer loop
vertex -0.0260799973098048 -0.00698811421776805 0.0
vertex -0.027 3.30654635769785e-18 0.0529
vertex -0.027 3.30654635769785e-18 0.0
endloop
endfacet
facet normal -0.99144486137381 0.130526192220052 0.0
outer loop
vertex -0.0260799973098048 0.00698811421776807 0.0529
vertex -0.027 3.30654635769785e-18 0.0
vertex -0.027 3.30654635769785e-18 0.0529
endloop
endfacet
facet normal -0.99144486137381 0.130526192220052 0.0
outer loop
vertex -0.027 3.30654635769785e-18 0.0
vertex -0.0260799973098048 0.00698811421776807 0.0529
vertex -0.0260799973098048 0.00698811421776807 0.0
endloop
endfacet
facet normal -0.923879532511287 0.38268343236509 0.0
outer loop
vertex -0.0233826859021798 0.0135 0.0529
vertex -0.0260799973098048 0.00698811421776807 0.0
vertex -0.0260799973098048 0.00698811421776807 0.0529
endloop
endfacet
facet normal -0.923879532511287 0.38268343236509 0.0
outer loop
vertex -0.0260799973098048 0.00698811421776807 0.0
vertex -0.0233826859021798 0.0135 0.0529
vertex -0.0233826859021798 0.0135 0.0
endloop
endfacet
facet normal 0.130526192220052 -0.99144486137381 -5.3888848813195e-19
outer loop
vertex -4.59242549680257e-18 0.025 0.039085968448198
vertex -0.00647047612756304 0.0241481456572267 0.002
vertex -4.59242549680257e-18 0.025 0.002
endloop
endfacet
facet normal 0.130526192220052 -0.99144486137381 -5.3888848813195e-19
outer loop
vertex -0.00647047612756304 0.0241481456572267 0.002
vertex -4.59242549680257e-18 0.025 0.039085968448198
vertex -0.00647047612756304 0.0241481456572267 0.0529
endloop
endfacet
facet normal -0.382442069599764 -0.923979471189773 -1.48363694916553e-05
outer loop
vertex 0.0125 0.021650635094611 0.0529
vertex 0.00647047612756301 0.0241481456572267 0.002
vertex 0.0125 0.021650635094611 0.002
endloop
endfacet
facet normal -0.382442069599764 -0.923979471189773 -1.48363694916553e-05
outer loop
vertex 0.00647047612756301 0.0241481456572267 0.002
vertex 0.0125 0.021650635094611 0.0529
vertex 0.00647047612756301 0.0241481456572267 0.0529
endloop
endfacet
facet normal -0.382442069599764 -0.923979471189773 -1.48363694916553e-05
outer loop
vertex 0.00647047612756301 0.0241481456572267 0.0529
vertex 0.0125 0.021650635094611 0.0529
vertex 0.00853397492372598 0.0232934164699155 0.0529
endloop
endfacet
facet normal 0.382474745476927 -0.923965945751401 -1.28092968461329e-05
outer loop
vertex -0.00647047612756304 0.0241481456572267 0.0529
vertex -0.0125 0.021650635094611 0.002
vertex -0.00647047612756304 0.0241481456572267 0.002
endloop
endfacet
facet normal 0.382474745476927 -0.923965945751401 -1.28092968461329e-05
outer loop
vertex -0.0125 0.021650635094611 0.002
vertex -0.00647047612756304 0.0241481456572267 0.0529
vertex -0.0125 0.021650635094611 0.0529
endloop
endfacet
facet normal 0.382474745476927 -0.923965945751401 -1.28092968461329e-05
outer loop
vertex -0.0125 0.021650635094611 0.0529
vertex -0.00647047612756304 0.0241481456572267 0.0529
vertex -0.00853397492372596 0.0232934164699155 0.0529
endloop
endfacet
facet normal 0.38268343236509 0.923879532511287 0.0
outer loop
vertex 0.00698811421776807 0.0260799973098048 0.0529
vertex 0.0135 0.0233826859021798 0.0
vertex 0.00698811421776807 0.0260799973098048 0.0
endloop
endfacet
facet normal 0.38268343236509 0.923879532511287 0.0
outer loop
vertex 0.0135 0.0233826859021798 0.0
vertex 0.00698811421776807 0.0260799973098048 0.0529
vertex 0.0135 0.0233826859021798 0.0529
endloop
endfacet
facet normal 0.38268343236509 0.923879532511287 0.0
outer loop
vertex 0.0135 0.0233826859021798 0.0529
vertex 0.00698811421776807 0.0260799973098048 0.0529
vertex 0.0107622363842875 0.0245167047223796 0.0529
endloop
endfacet
facet normal -8.51458603141571e-32 -3.28113148305152e-31 1.0
outer loop
vertex -0.0260799973098048 -0.00698811421776805 0.0529
vertex -0.0260799973098048 0.00698811421776807 0.0529
vertex -0.027 3.30654635769785e-18 0.0529
endloop
endfacet
facet normal -8.51458603141571e-32 -3.28113148305152e-31 1.0
outer loop
vertex -0.0260799973098048 0.00698811421776807 0.0529
vertex -0.0260799973098048 -0.00698811421776805 0.0529
vertex -0.0233826859021798 -0.0135 0.0529
endloop
endfacet
facet normal -8.51458603141571e-32 -3.28113148305152e-31 1.0
outer loop
vertex -0.0260799973098048 0.00698811421776807 0.0529
vertex -0.0233826859021798 -0.0135 0.0529
vertex -0.025 -3.06161699786838e-18 0.0529
endloop
endfacet
facet normal -8.51458603141571e-32 -3.28113148305152e-31 1.0
outer loop
vertex -0.025 -3.06161699786838e-18 0.0529
vertex -0.0233826859021798 -0.0135 0.0529
vertex -0.0241481456572267 -0.00647047612756303 0.0529
endloop
endfacet
facet normal -8.51458603141571e-32 -3.28113148305152e-31 1.0
outer loop
vertex -0.0241481456572267 -0.00647047612756303 0.0529
vertex -0.0233826859021798 -0.0135 0.0529
vertex -0.021650635094611 -0.0125 0.0529
endloop
endfacet
facet normal -8.51458603141571e-32 -3.28113148305152e-31 1.0
outer loop
vertex -0.021650635094611 -0.0125 0.0529
vertex -0.0233826859021798 -0.0135 0.0529
vertex -0.0190918830920368 -0.0190918830920368 0.0529
endloop
endfacet
facet normal -8.51458603141571e-32 -3.28113148305152e-31 1.0
outer loop
vertex -0.021650635094611 -0.0125 0.0529
vertex -0.0190918830920368 -0.0190918830920368 0.0529
vertex -0.0176776695296637 -0.0176776695296637 0.0529
endloop
endfacet
facet normal -8.51458603141571e-32 -3.28113148305152e-31 1.0
outer loop
vertex -0.0176776695296637 -0.0176776695296637 0.0529
vertex -0.0190918830920368 -0.0190918830920368 0.0529
vertex -0.0135 -0.0233826859021798 0.0529
endloop
endfacet
facet normal -8.51458603141571e-32 -3.28113148305152e-31 1.0
outer loop
vertex -0.0176776695296637 -0.0176776695296637 0.0529
vertex -0.0135 -0.0233826859021798 0.0529
vertex -0.0125 -0.021650635094611 0.0529
endloop
endfacet
facet normal -8.51458603141571e-32 -3.28113148305152e-31 1.0
outer loop
vertex -0.0125 -0.021650635094611 0.0529
vertex -0.0135 -0.0233826859021798 0.0529
vertex -0.00698811421776808 -0.0260799973098048 0.0529
endloop
endfacet
facet normal -8.51458603141571e-32 -3.28113148305152e-31 1.0
outer loop
vertex -0.0125 -0.021650635094611 0.0529
vertex -0.00698811421776808 -0.0260799973098048 0.0529
vertex -0.00647047612756302 -0.0241481456572267 0.0529
endloop
endfacet
facet normal -8.51458603141571e-32 -3.28113148305152e-31 1.0
outer loop
vertex -0.00647047612756302 -0.0241481456572267 0.0529
vertex -0.00698811421776808 -0.0260799973098048 0.0529
vertex -4.95981953654678e-18 -0.027 0.0529
endloop
endfacet
facet normal -8.51458603141571e-32 -3.28113148305152e-31 1.0
outer loop
vertex -0.00647047612756302 -0.0241481456572267 0.0529
vertex -4.95981953654678e-18 -0.027 0.0529
vertex 1.53080849893419e-18 -0.025 0.0529
endloop
endfacet
facet normal -8.51458603141571e-32 -3.28113148305152e-31 1.0
outer loop
vertex 1.53080849893419e-18 -0.025 0.0529
vertex -4.95981953654678e-18 -0.027 0.0529
vertex 0.00698811421776805 -0.0260799973098048 0.0529
endloop
endfacet
facet normal -8.51458603141571e-32 -3.28113148305152e-31 1.0
outer loop
vertex 1.53080849893419e-18 -0.025 0.0529
vertex 0.00698811421776805 -0.0260799973098048 0.0529
vertex 0.00647047612756302 -0.0241481456572267 0.0529
endloop
endfacet
facet normal -8.51458603141571e-32 -3.28113148305152e-31 1.0
outer loop
vertex 0.00647047612756302 -0.0241481456572267 0.0529
vertex 0.00698811421776805 -0.0260799973098048 0.0529
vertex 0.0125 -0.021650635094611 0.0529
endloop
endfacet
facet normal -8.51458603141571e-32 -3.28113148305152e-31 1.0
outer loop
vertex 0.0125 -0.021650635094611 0.0529
vertex 0.00698811421776805 -0.0260799973098048 0.0529
vertex 0.0135 -0.0233826859021799 0.0529
endloop
endfacet
facet normal -8.51458603141571e-32 -3.28113148305152e-31 1.0
outer loop
vertex 0.0125 -0.021650635094611 0.0529
vertex 0.0135 -0.0233826859021799 0.0529
vertex 0.0176776695296637 -0.0176776695296637 0.0529
endloop
endfacet
facet normal -8.51458603141571e-32 -3.28113148305152e-31 1.0
outer loop
vertex 0.0176776695296637 -0.0176776695296637 0.0529
vertex 0.0135 -0.0233826859021799 0.0529
vertex 0.0190918830920368 -0.0190918830920368 0.0529
endloop
endfacet
facet normal -8.51458603141571e-32 -3.28113148305152e-31 1.0
outer loop
vertex 0.0176776695296637 -0.0176776695296637 0.0529
vertex 0.0190918830920368 -0.0190918830920368 0.0529
vertex 0.021650635094611 -0.0125 0.0529
endloop
endfacet
facet normal -8.51458603141571e-32 -3.28113148305152e-31 1.0
outer loop
vertex 0.021650635094611 -0.0125 0.0529
vertex 0.0190918830920368 -0.0190918830920368 0.0529
vertex 0.0233826859021798 -0.0135 0.0529
endloop
endfacet
facet normal -8.51458603141571e-32 -3.28113148305152e-31 1.0
outer loop
vertex 0.021650635094611 -0.0125 0.0529
vertex 0.0233826859021798 -0.0135 0.0529
vertex 0.0241481456572267 -0.00647047612756302 0.0529
endloop
endfacet
facet normal -8.51458603141571e-32 -3.28113148305152e-31 1.0
outer loop
vertex 0.0241481456572267 -0.00647047612756302 0.0529
vertex 0.0233826859021798 -0.0135 0.0529
vertex 0.0260799973098048 -0.00698811421776808 0.0529
endloop
endfacet
facet normal -8.51458603141571e-32 -3.28113148305152e-31 1.0
outer loop
vertex 0.0241481456572267 -0.00647047612756302 0.0529
vertex 0.0260799973098048 -0.00698811421776808 0.0529
vertex 0.025 0.0 0.0529
endloop
endfacet
facet normal -8.51458603141571e-32 -3.28113148305152e-31 1.0
outer loop
vertex -0.025 -3.06161699786838e-18 0.0529
vertex -0.0233826859021798 0.0135 0.0529
vertex -0.0260799973098048 0.00698811421776807 0.0529
endloop
endfacet
facet normal -8.51458603141571e-32 -3.28113148305152e-31 1.0
outer loop
vertex -0.0233826859021798 0.0135 0.0529
vertex -0.025 -3.06161699786838e-18 0.0529
vertex -0.0241481456572267 0.00647047612756301 0.0529
endloop
endfacet
facet normal -8.51458603141571e-32 -3.28113148305152e-31 1.0
outer loop
vertex -0.0233826859021798 0.0135 0.0529
vertex -0.0241481456572267 0.00647047612756301 0.0529
vertex -0.021650635094611 0.0125 0.0529
endloop
endfacet
facet normal -8.51458603141571e-32 -3.28113148305152e-31 1.0
outer loop
vertex -0.0233826859021798 0.0135 0.0529
vertex -0.021650635094611 0.0125 0.0529
vertex -0.0190918830920368 0.0190918830920368 0.0529
endloop
endfacet
facet normal -8.51458603141571e-32 -3.28113148305152e-31 1.0
outer loop
vertex -0.0190918830920368 0.0190918830920368 0.0529
vertex -0.021650635094611 0.0125 0.0529
vertex -0.0176776695296637 0.0176776695296637 0.0529
endloop
endfacet
facet normal -8.51458603141571e-32 -3.28113148305152e-31 1.0
outer loop
vertex -0.0190918830920368 0.0190918830920368 0.0529
vertex -0.0176776695296637 0.0176776695296637 0.0529
vertex -0.0135 0.0233826859021798 0.0529
endloop
endfacet
facet normal -8.51458603141571e-32 -3.28113148305152e-31 1.0
outer loop
vertex -0.0135 0.0233826859021798 0.0529
vertex -0.0176776695296637 0.0176776695296637 0.0529
vertex -0.0125 0.021650635094611 0.0529
endloop
endfacet
facet normal -8.51458603141571e-32 -3.28113148305152e-31 1.0
outer loop
vertex -0.0135 0.0233826859021798 0.0529
vertex -0.0125 0.021650635094611 0.0529
vertex -0.00698811421776806 0.0260799973098048 0.0529
endloop
endfacet
facet normal -8.51458603141571e-32 -3.28113148305152e-31 1.0
outer loop
vertex -0.00698811421776806 0.0260799973098048 0.0529
vertex -0.0125 0.021650635094611 0.0529
vertex -0.00853397492372596 0.0232934164699155 0.0529
endloop
endfacet
facet normal -8.51458603141571e-32 -3.28113148305152e-31 1.0
outer loop
vertex -0.00698811421776806 0.0260799973098048 0.0529
vertex -0.00853397492372596 0.0232934164699155 0.0529
vertex -0.00647047612756304 0.0241481456572267 0.0529
endloop
endfacet
facet normal -8.51458603141571e-32 -3.28113148305152e-31 1.0
outer loop
vertex -0.00698811421776806 0.0260799973098048 0.0529
vertex -0.00647047612756304 0.0241481456572267 0.0529
vertex 1.65327317884893e-18 0.032 0.0529
endloop
endfacet
facet normal -8.51458603141571e-32 -3.28113148305152e-31 1.0
outer loop
vertex 1.65327317884893e-18 0.032 0.0529
vertex -0.00647047612756304 0.0241481456572267 0.0529
vertex 1.65327317884893e-18 0.03 0.0529
endloop
endfacet
facet normal -8.51458603141571e-32 -3.28113148305152e-31 1.0
outer loop
vertex 1.65327317884893e-18 0.032 0.0529
vertex 1.65327317884893e-18 0.03 0.0529
vertex 0.00647047612756301 0.0241481456572267 0.0529
endloop
endfacet
facet normal -8.51458603141571e-32 -3.28113148305152e-31 1.0
outer loop
vertex 1.65327317884893e-18 0.032 0.0529
vertex 0.00647047612756301 0.0241481456572267 0.0529
vertex 0.00698811421776807 0.0260799973098048 0.0529
endloop
endfacet
facet normal -8.51458603141571e-32 -3.28113148305152e-31 1.0
outer loop
vertex 0.00698811421776807 0.0260799973098048 0.0529
vertex 0.00647047612756301 0.0241481456572267 0.0529
vertex 0.00853397492372598 0.0232934164699155 0.0529
endloop
endfacet
facet normal -8.51458603141571e-32 -3.28113148305152e-31 1.0
outer loop
vertex 0.00698811421776807 0.0260799973098048 0.0529
vertex 0.00853397492372598 0.0232934164699155 0.0529
vertex 0.0107622363842875 0.0245167047223796 0.0529
endloop
endfacet
facet normal -8.51458603141571e-32 -3.28113148305152e-31 1.0
outer loop
vertex 0.0107622363842875 0.0245167047223796 0.0529
vertex 0.00853397492372598 0.0232934164699155 0.0529
vertex 0.0125 0.021650635094611 0.0529
endloop
endfacet
facet normal -8.51458603141571e-32 -3.28113148305152e-31 1.0
outer loop
vertex 0.0107622363842875 0.0245167047223796 0.0529
vertex 0.0125 0.021650635094611 0.0529
vertex 0.0135 0.0233826859021798 0.0529
endloop
endfacet
facet normal -8.51458603141571e-32 -3.28113148305152e-31 1.0
outer loop
vertex 0.0135 0.0233826859021798 0.0529
vertex 0.0125 0.021650635094611 0.0529
vertex 0.0176776695296637 0.0176776695296637 0.0529
endloop
endfacet
facet normal -8.51458603141571e-32 -3.28113148305152e-31 1.0
outer loop
vertex 0.0135 0.0233826859021798 0.0529
vertex 0.0176776695296637 0.0176776695296637 0.0529
vertex 0.0190918830920368 0.0190918830920368 0.0529
endloop
endfacet
facet normal -8.51458603141571e-32 -3.28113148305152e-31 1.0
outer loop
vertex 0.0190918830920368 0.0190918830920368 0.0529
vertex 0.0176776695296637 0.0176776695296637 0.0529
vertex 0.021650635094611 0.0125 0.0529
endloop
endfacet
facet normal -8.51458603141571e-32 -3.28113148305152e-31 1.0
outer loop
vertex 0.0190918830920368 0.0190918830920368 0.0529
vertex 0.021650635094611 0.0125 0.0529
vertex 0.0233826859021798 0.0135 0.0529
endloop
endfacet
facet normal -8.51458603141571e-32 -3.28113148305152e-31 1.0
outer loop
vertex 0.0233826859021798 0.0135 0.0529
vertex 0.021650635094611 0.0125 0.0529
vertex 0.0241481456572267 0.00647047612756304 0.0529
endloop
endfacet
facet normal -8.51458603141571e-32 -3.28113148305152e-31 1.0
outer loop
vertex 0.0233826859021798 0.0135 0.0529
vertex 0.0241481456572267 0.00647047612756304 0.0529
vertex 0.0260799973098048 0.00698811421776806 0.0529
endloop
endfacet
facet normal -8.51458603141571e-32 -3.28113148305152e-31 1.0
outer loop
vertex 0.0260799973098048 0.00698811421776806 0.0529
vertex 0.0241481456572267 0.00647047612756304 0.0529
vertex 0.025 0.0 0.0529
endloop
endfacet
facet normal -8.51458603141571e-32 -3.28113148305152e-31 1.0
outer loop
vertex 0.0260799973098048 0.00698811421776806 0.0529
vertex 0.025 0.0 0.0529
vertex 0.0260799973098048 -0.00698811421776808 0.0529
endloop
endfacet
facet normal -8.51458603141571e-32 -3.28113148305152e-31 1.0
outer loop
vertex 0.0260799973098048 0.00698811421776806 0.0529
vertex 0.0260799973098048 -0.00698811421776808 0.0529
vertex 0.027 0.0 0.0529
endloop
endfacet
facet normal 0.130526192220052 0.99144486137381 -4.23569671377246e-19
outer loop
vertex 1.65327317884893e-18 0.027 0.039085968448198
vertex 0.00698811421776807 0.0260799973098048 0.0
vertex 1.65327317884893e-18 0.027 0.0
endloop
endfacet
facet normal 0.130526192220052 0.99144486137381 -4.23569671377246e-19
outer loop
vertex 0.00698811421776807 0.0260799973098048 0.0
vertex 1.65327317884893e-18 0.027 0.039085968448198
vertex 0.00698811421776807 0.0260799973098048 0.0529
endloop
endfacet
facet normal -0.130526192220052 0.99144486137381 -0.0
outer loop
vertex -0.00698811421776806 0.0260799973098048 0.0529
vertex 1.65327317884893e-18 0.027 0.0
vertex -0.00698811421776806 0.0260799973098048 0.0
endloop
endfacet
facet normal -0.130526192220052 0.99144486137381 -0.0
outer loop
vertex 1.65327317884893e-18 0.027 0.0
vertex -0.00698811421776806 0.0260799973098048 0.0529
vertex 1.65327317884893e-18 0.027 0.039085968448198
endloop
endfacet
facet normal -0.130526192220051 -0.99144486137381 5.38888488131954e-19
outer loop
vertex 0.00647047612756301 0.0241481456572267 0.0529
vertex -4.59242549680257e-18 0.025 0.002
vertex 0.00647047612756301 0.0241481456572267 0.002
endloop
endfacet
facet normal -0.130526192220051 -0.99144486137381 5.38888488131954e-19
outer loop
vertex -4.59242549680257e-18 0.025 0.002
vertex 0.00647047612756301 0.0241481456572267 0.0529
vertex -4.59242549680257e-18 0.025 0.039085968448198
endloop
endfacet
facet normal -0.623062216307831 0.735477694891268 -0.266206752219024
outer loop
vertex 1.65327317884893e-18 0.032 0.0529
vertex 1.65327317884893e-18 0.027 0.039085968448198
vertex -0.00698811421776806 0.0260799973098048 0.0529
endloop
endfacet
facet normal 0.623062216307831 0.735477694891268 -0.266206752219024
outer loop
vertex 0.00698811421776807 0.0260799973098048 0.0529
vertex 1.65327317884893e-18 0.027 0.039085968448198
vertex 1.65327317884893e-18 0.032 0.0529
endloop
endfacet
facet normal -0.647826260463989 -0.716310438983709 0.259269148292291
outer loop
vertex 1.65327317884893e-18 0.03 0.0529
vertex -4.59242549680257e-18 0.025 0.039085968448198
vertex 0.00647047612756301 0.0241481456572267 0.0529
endloop
endfacet
facet normal 0.647826260463988 -0.71631043898371 0.259269148292291
outer loop
vertex -0.00647047612756304 0.0241481456572267 0.0529
vertex -4.59242549680257e-18 0.025 0.039085968448198
vertex 1.65327317884893e-18 0.03 0.0529
endloop
endfacet
endsolid Beaker
